<svg width="62" height="8" viewBox="0 0 62 8" fill="none" xmlns="http://www.w3.org/2000/svg">
<g clip-path="url(#clip0_10157_93)">
<rect width="7.84394" height="7.84394" transform="translate(0.639526 0.0805664)" fill="white" style="mix-blend-mode:multiply"/>
<path d="M7.74809 6.8425L5.8969 4.99131C6.34173 4.45727 6.56354 3.7723 6.51621 3.07889C6.46887 2.38547 6.15602 1.737 5.64275 1.26837C5.12947 0.799745 4.45528 0.547042 3.76043 0.562832C3.06558 0.578621 2.40357 0.861689 1.91211 1.35315C1.42065 1.84461 1.13758 2.50662 1.12179 3.20147C1.106 3.89632 1.35871 4.57051 1.82733 5.08379C2.29596 5.59706 2.94443 5.90991 3.63785 5.95725C4.33126 6.00458 5.01623 5.78277 5.55027 5.33794L7.40146 7.18913L7.74809 6.8425ZM1.62002 3.26716C1.62002 2.83084 1.7494 2.40431 1.99181 2.04151C2.23422 1.67872 2.57877 1.39596 2.98188 1.22899C3.38499 1.06201 3.82857 1.01832 4.25651 1.10345C4.68445 1.18857 5.07755 1.39868 5.38608 1.70721C5.6946 2.01574 5.90472 2.40883 5.98984 2.83677C6.07496 3.26471 6.03127 3.70829 5.8643 4.1114C5.69732 4.51452 5.41456 4.85906 5.05177 5.10147C4.68898 5.34388 4.26245 5.47327 3.82612 5.47327C3.24123 5.47262 2.68047 5.23998 2.26689 4.8264C1.8533 4.41281 1.62066 3.85206 1.62002 3.26716Z" fill="#2A254B"/>
</g>
<g clip-path="url(#clip1_10157_93)">
<rect width="7.84394" height="7.84394" transform="translate(18.2884 0.0805664)" fill="white" style="mix-blend-mode:multiply"/>
<path d="M20.7396 7.43426C21.0104 7.43426 21.2299 7.21477 21.2299 6.94402C21.2299 6.67326 21.0104 6.45377 20.7396 6.45377C20.4689 6.45377 20.2494 6.67326 20.2494 6.94402C20.2494 7.21477 20.4689 7.43426 20.7396 7.43426Z" fill="#2A254B"/>
<path d="M24.1713 7.43426C24.4421 7.43426 24.6616 7.21477 24.6616 6.94402C24.6616 6.67326 24.4421 6.45377 24.1713 6.45377C23.9006 6.45377 23.6811 6.67326 23.6811 6.94402C23.6811 7.21477 23.9006 7.43426 24.1713 7.43426Z" fill="#2A254B"/>
<path d="M25.1518 1.79644H19.715L19.514 0.766919C19.5025 0.710718 19.4717 0.660315 19.4269 0.624484C19.3821 0.588654 19.3262 0.569664 19.2689 0.57082H18.2884V1.06107H19.0679L20.0042 5.76743C20.0157 5.82363 20.0465 5.87403 20.0913 5.90986C20.1361 5.94569 20.192 5.96468 20.2494 5.96353H24.6616V5.47328H20.4504L20.2494 4.49279H24.6616C24.7182 4.49417 24.7736 4.47588 24.8183 4.44102C24.863 4.40616 24.8942 4.35689 24.9067 4.30159L25.3969 2.09549C25.4052 2.05912 25.405 2.02135 25.3964 1.98507C25.3878 1.94878 25.3711 1.91493 25.3474 1.88609C25.3238 1.85726 25.2939 1.83419 25.26 1.81866C25.2261 1.80312 25.1891 1.79552 25.1518 1.79644ZM24.4655 4.00254H20.1562L19.813 2.28668H24.8454L24.4655 4.00254Z" fill="#2A254B"/>
</g>
<g clip-path="url(#clip2_10157_93)">
<rect width="7.84394" height="7.84394" transform="translate(35.9372 0.0805664)" fill="white" style="mix-blend-mode:multiply"/>
<path d="M39.8592 2.04157C39.6168 2.04157 39.3798 2.11345 39.1783 2.24812C38.9767 2.38279 38.8196 2.57421 38.7269 2.79816C38.6341 3.02211 38.6098 3.26854 38.6571 3.50629C38.7044 3.74404 38.8212 3.96242 38.9926 4.13382C39.164 4.30523 39.3823 4.42196 39.6201 4.46925C39.8578 4.51654 40.1043 4.49227 40.3282 4.3995C40.5522 4.30674 40.7436 4.14965 40.8783 3.9481C41.0129 3.74655 41.0848 3.50959 41.0848 3.26718C41.0848 2.94213 40.9557 2.63039 40.7258 2.40054C40.496 2.1707 40.1843 2.04157 39.8592 2.04157ZM39.8592 4.00255C39.7138 4.00255 39.5716 3.95942 39.4506 3.87862C39.3297 3.79782 39.2355 3.68297 39.1798 3.5486C39.1241 3.41423 39.1096 3.26637 39.138 3.12372C39.1663 2.98107 39.2364 2.85004 39.3392 2.7472C39.4421 2.64436 39.5731 2.57432 39.7157 2.54595C39.8584 2.51757 40.0062 2.53213 40.1406 2.58779C40.275 2.64345 40.3898 2.7377 40.4706 2.85863C40.5514 2.97957 40.5946 3.12174 40.5946 3.26718C40.5943 3.46215 40.5168 3.64906 40.3789 3.78692C40.2411 3.92479 40.0542 4.00233 39.8592 4.00255Z" fill="#2A254B"/>
<path d="M39.8592 0.570831C39.1805 0.570831 38.517 0.772098 37.9526 1.14918C37.3883 1.52626 36.9484 2.06222 36.6887 2.68929C36.429 3.31636 36.361 4.00636 36.4934 4.67205C36.6258 5.33774 36.9527 5.94921 37.4326 6.42915C37.9125 6.90908 38.524 7.23592 39.1897 7.36834C39.8554 7.50075 40.5454 7.43279 41.1725 7.17305C41.7995 6.91331 42.3355 6.47346 42.7126 5.90912C43.0897 5.34477 43.2909 4.68128 43.2909 4.00255C43.2899 3.09272 42.928 2.22044 42.2847 1.57709C41.6413 0.933741 40.769 0.571856 39.8592 0.570831ZM38.3885 6.54607V6.20866C38.3887 6.01369 38.4662 5.82677 38.6041 5.68891C38.7419 5.55105 38.9289 5.47351 39.1238 5.47329H40.5946C40.7895 5.47351 40.9765 5.55105 41.1143 5.68891C41.2522 5.82677 41.3297 6.01369 41.3299 6.20866V6.54607C40.8836 6.80669 40.376 6.94403 39.8592 6.94403C39.3424 6.94403 38.8348 6.80669 38.3885 6.54607ZM41.8183 6.19047C41.8135 5.86893 41.6825 5.56218 41.4535 5.33632C41.2246 5.11047 40.9161 4.98359 40.5946 4.98305H39.1238C38.8023 4.98359 38.4938 5.11047 38.2649 5.33632C38.0359 5.56218 37.9049 5.86893 37.9001 6.19047C37.4555 5.79356 37.1421 5.27098 37.0011 4.69195C36.8602 4.11292 36.8985 3.50474 37.1109 2.94795C37.3233 2.39116 37.6998 1.91201 38.1906 1.57396C38.6814 1.23592 39.2633 1.05491 39.8592 1.05491C40.4551 1.05491 41.037 1.23592 41.5278 1.57396C42.0186 1.91201 42.3951 2.39116 42.6075 2.94795C42.8199 3.50474 42.8582 4.11292 42.7173 4.69195C42.5763 5.27098 42.2629 5.79356 41.8183 6.19047Z" fill="#2A254B"/>
</g>
<rect width="7.84394" height="7.84394" transform="translate(53.5861 0.0805664)" fill="white" style="mix-blend-mode:multiply"/>
<path d="M60.4495 1.5513H54.5666V2.04155H60.4495V1.5513Z" fill="#2A254B"/>
<path d="M60.4495 5.96351H54.5666V6.45376H60.4495V5.96351Z" fill="#2A254B"/>
<path d="M60.4495 3.02204H54.5666V3.51228H60.4495V3.02204Z" fill="#2A254B"/>
<path d="M60.4495 4.49278H54.5666V4.98302H60.4495V4.49278Z" fill="#2A254B"/>
<defs>
<clipPath id="clip0_10157_93">
<rect width="7.84394" height="7.84394" fill="white" transform="translate(0.639526 0.0805664)"/>
</clipPath>
<clipPath id="clip1_10157_93">
<rect width="7.84394" height="7.84394" fill="white" transform="translate(18.2884 0.0805664)"/>
</clipPath>
<clipPath id="clip2_10157_93">
<rect width="7.84394" height="7.84394" fill="white" transform="translate(35.9372 0.0805664)"/>
</clipPath>
</defs>
</svg>
