<svg width="240" height="29" viewBox="0 0 240 29" fill="none" xmlns="http://www.w3.org/2000/svg">
<rect width="178.833" height="28.2222" transform="translate(0.5 0.243042)" fill="#F9F9F9"/>
<path opacity="0.2" d="M16.9088 19.5726C17.0872 19.6131 17.2657 19.6293 17.5009 19.6293C18.0606 19.6293 18.4418 19.3779 18.6689 18.7614L20.4696 13.9353H19.8937L18.6527 17.3582L17.3873 13.9353H16.7952L18.385 18.0963L18.2147 18.5587C18.02 19.0859 17.6793 19.1102 17.3387 19.1102H16.9088V19.5726ZM20.7137 15.8982C20.7137 17.0906 21.5573 17.9584 22.7091 17.9584C23.8608 17.9584 24.7044 17.0906 24.7044 15.8982C24.7044 14.6978 23.8608 13.8299 22.7091 13.8299C21.5573 13.8299 20.7137 14.6978 20.7137 15.8982ZM21.2815 15.8901C21.2815 14.9817 21.8655 14.3328 22.7091 14.3328C23.5445 14.3328 24.1366 14.9817 24.1366 15.8901C24.1366 16.8148 23.5445 17.4556 22.7091 17.4556C21.8655 17.4556 21.2815 16.8148 21.2815 15.8901ZM28.2622 13.9353V16.0199C28.2622 16.9527 27.8161 17.4556 27.0618 17.4556C26.4372 17.4556 26.0236 17.123 26.0236 16.1902V13.9272H25.4558V16.3687C25.4558 17.3258 25.9587 17.9584 26.8834 17.9584C27.4998 17.9584 28.0432 17.6502 28.2622 17.196L28.3352 17.8611H28.8219V13.9353H28.2622ZM32.0399 13.8867C31.902 13.8542 31.7965 13.8461 31.6749 13.8461C31.1233 13.8461 30.7096 14.1219 30.5555 14.5437L30.515 13.9353H29.9878V17.8611H30.5474V15.6224C30.5474 14.8762 31.0098 14.3896 31.7316 14.3896H32.0399V13.8867ZM34.3555 16.0767C34.3555 16.7337 34.8341 17.1392 35.6046 17.1392C36.2211 17.1392 36.724 16.8634 36.9511 16.4011C36.9998 16.8878 37.3323 17.1392 37.892 17.1392C38.7112 17.1392 39.2952 16.32 39.2952 15.1763C39.2952 13.2946 37.9001 11.9481 35.9615 11.9481C34.0716 11.9481 32.6198 13.4 32.6198 15.2899C32.6198 17.2041 34.0635 18.656 35.9615 18.656C36.7402 18.656 37.4459 18.4046 38.0299 17.9422L37.8028 17.6097C37.2836 18.0314 36.6429 18.2504 35.9615 18.2504C34.315 18.2504 33.0578 16.9689 33.0578 15.2899C33.0578 13.6352 34.3231 12.3537 35.9615 12.3537C37.6486 12.3537 38.8572 13.5298 38.8572 15.1763C38.8572 16.1172 38.4841 16.758 37.9325 16.758C37.6 16.758 37.4296 16.5877 37.4296 16.2713V14.7221C37.4296 13.8461 36.8862 13.3513 35.9696 13.3513C35.0693 13.3513 34.4772 13.8299 34.4772 14.5437H34.9639C34.9639 14.0651 35.3289 13.7812 35.9453 13.7812C36.5942 13.7812 36.9105 14.0894 36.9105 14.714V14.8357L35.7182 14.9249C34.8503 14.9979 34.3555 15.4359 34.3555 16.0767ZM34.8746 16.0686C34.8746 15.6224 35.2072 15.371 35.8399 15.3142L36.9105 15.2331V15.4116C36.9105 16.2227 36.4563 16.7093 35.7182 16.7093C35.1748 16.7093 34.8746 16.4822 34.8746 16.0686ZM41.8683 17.9584C42.7929 17.9584 43.4013 17.5123 43.6121 16.685H43.0768C42.9308 17.2041 42.5171 17.4799 41.8764 17.4799C41.0328 17.4799 40.5299 16.9283 40.4894 15.9712H43.6121V15.6954C43.6121 14.5842 42.8903 13.8299 41.8277 13.8299C40.7084 13.8299 39.9459 14.6734 39.9459 15.8982C39.9459 17.1311 40.7165 17.9584 41.8683 17.9584ZM41.8277 14.3084C42.5658 14.3084 43.0525 14.8113 43.0525 15.5657H40.5056C40.6029 14.7951 41.0896 14.3084 41.8277 14.3084ZM45.0666 17.8611V15.4278C45.0666 14.8276 45.4641 14.3409 46.1211 14.3409C46.7132 14.3409 47.0944 14.7302 47.0944 15.3953V17.8611H47.646V15.4359C47.646 14.8276 48.0353 14.3328 48.6923 14.3328C49.2925 14.3328 49.6656 14.7302 49.6656 15.4034V17.8611H50.2091V15.2899C50.2091 14.3814 49.6494 13.8299 48.7977 13.8299C48.1651 13.8299 47.6865 14.1543 47.5081 14.6653C47.3215 14.1543 46.8592 13.8299 46.2427 13.8299C45.6912 13.8299 45.2532 14.0813 45.0585 14.495L44.9936 13.9353H44.507V17.8611H45.0666ZM52.4623 17.9584C53.1274 17.9584 53.6628 17.6664 53.9061 17.1717L53.9791 17.8611H54.4495V15.3223C54.4495 14.2841 53.7844 13.8299 52.876 13.8299C51.9108 13.8299 51.2619 14.3409 51.2619 15.1358H51.7729C51.7729 14.6086 52.1784 14.3003 52.8598 14.3003C53.4357 14.3003 53.898 14.5437 53.898 15.3142V15.444L52.6002 15.5494C51.6837 15.6224 51.1321 16.0767 51.1321 16.7986C51.1321 17.488 51.6269 17.9584 52.4623 17.9584ZM52.5921 17.5042C52.0568 17.5042 51.6999 17.2609 51.6999 16.7823C51.6999 16.3443 52 16.0199 52.7381 15.955L53.898 15.8658V16.0767C53.898 16.9283 53.4194 17.5042 52.5921 17.5042ZM55.8484 12.8566C56.0755 12.8566 56.2702 12.67 56.2702 12.4429C56.2702 12.2158 56.0755 12.0211 55.8484 12.0211C55.6213 12.0211 55.4347 12.2158 55.4347 12.4429C55.4347 12.67 55.6213 12.8566 55.8484 12.8566ZM55.5726 17.8611H56.1323V13.9353H55.5726V17.8611ZM57.8834 17.8611V11.9481H57.3237V17.8611H57.8834ZM59.5523 17.9503C59.828 17.9503 60.0633 17.7232 60.0633 17.4556C60.0633 17.1798 59.828 16.9446 59.5523 16.9446C59.2765 16.9446 59.0413 17.1798 59.0413 17.4556C59.0413 17.7232 59.2765 17.9503 59.5523 17.9503ZM60.6752 15.9063C60.6752 17.1392 61.4295 17.9584 62.5408 17.9584C63.433 17.9584 64.1305 17.4312 64.3171 16.6282H63.7493C63.5952 17.1311 63.1248 17.4556 62.5408 17.4556C61.7459 17.4556 61.2268 16.831 61.2268 15.8982C61.2268 14.933 61.7864 14.3247 62.5813 14.3247C63.1248 14.3247 63.5952 14.6248 63.7412 15.1682H64.3009C64.1468 14.3571 63.4816 13.8299 62.5732 13.8299C61.4295 13.8299 60.6752 14.6734 60.6752 15.9063ZM64.8892 15.8982C64.8892 17.0906 65.7327 17.9584 66.8845 17.9584C68.0363 17.9584 68.8798 17.0906 68.8798 15.8982C68.8798 14.6978 68.0363 13.8299 66.8845 13.8299C65.7327 13.8299 64.8892 14.6978 64.8892 15.8982ZM65.457 15.8901C65.457 14.9817 66.041 14.3328 66.8845 14.3328C67.72 14.3328 68.3121 14.9817 68.3121 15.8901C68.3121 16.8148 67.72 17.4556 66.8845 17.4556C66.041 17.4556 65.457 16.8148 65.457 15.8901ZM70.3346 17.8611V15.4278C70.3346 14.8276 70.7321 14.3409 71.3891 14.3409C71.9812 14.3409 72.3624 14.7302 72.3624 15.3953V17.8611H72.914V15.4359C72.914 14.8276 73.3033 14.3328 73.9603 14.3328C74.5605 14.3328 74.9336 14.7302 74.9336 15.4034V17.8611H75.4771V15.2899C75.4771 14.3814 74.9174 13.8299 74.0658 13.8299C73.4331 13.8299 72.9545 14.1543 72.7761 14.6653C72.5895 14.1543 72.1272 13.8299 71.5108 13.8299C70.9592 13.8299 70.5212 14.0813 70.3265 14.495L70.2616 13.9353H69.775V17.8611H70.3346Z" fill="#2A254B"/>
<rect width="60.4444" height="28.2222" transform="translate(179.333 0.243042)" fill="#2A254B"/>
<path d="M195.913 13.0553C195.913 13.8502 196.391 14.3693 197.3 14.5883L198.281 14.8316C198.906 14.9776 199.198 15.3183 199.198 15.8374C199.198 16.5025 198.654 16.9162 197.802 16.9162C197.008 16.9162 196.472 16.5187 196.44 15.9104H195.84C195.913 16.8594 196.675 17.4515 197.802 17.4515C199.003 17.4515 199.782 16.8107 199.782 15.8049C199.782 15.0182 199.311 14.499 198.403 14.28L197.405 14.0367C196.797 13.8826 196.497 13.5582 196.497 13.0472C196.497 12.3902 197.032 11.9684 197.851 11.9684C198.581 11.9684 199.027 12.3415 199.092 12.9985H199.684C199.595 12.0252 198.906 11.4412 197.859 11.4412C196.691 11.4412 195.913 12.0819 195.913 13.0553ZM200.986 12.3496C201.213 12.3496 201.408 12.163 201.408 11.9359C201.408 11.7088 201.213 11.5142 200.986 11.5142C200.759 11.5142 200.572 11.7088 200.572 11.9359C200.572 12.163 200.759 12.3496 200.986 12.3496ZM200.71 17.3542H201.27V13.4284H200.71V17.3542ZM202.169 15.2777C202.169 16.3484 202.851 17.2325 203.97 17.2325C204.643 17.2325 205.187 16.908 205.454 16.3565V17.2893C205.454 18.1085 204.919 18.6519 204.116 18.6519C203.41 18.6519 202.924 18.2788 202.802 17.6462H202.242C202.396 18.5952 203.102 19.1629 204.108 19.1629C205.26 19.1629 206.006 18.4005 206.006 17.2325V13.4284H205.519L205.462 14.2152C205.211 13.6393 204.692 13.3229 204.01 13.3229C202.859 13.3229 202.169 14.207 202.169 15.2777ZM202.729 15.2696C202.729 14.4747 203.216 13.8177 204.059 13.8177C204.919 13.8177 205.406 14.4342 205.406 15.2696C205.406 16.1132 204.903 16.7296 204.051 16.7296C203.224 16.7296 202.729 16.0726 202.729 15.2696ZM207.733 17.3542V15.302C207.733 14.4179 208.188 13.8339 208.991 13.8339C209.639 13.8339 210.053 14.1584 210.053 15.0749V17.3542H210.613V14.9533C210.613 13.9637 210.167 13.3229 209.088 13.3229C208.52 13.3229 208.001 13.6068 207.741 14.1097L207.66 13.4284H207.174V17.3542H207.733ZM216.736 13.4284V15.5129C216.736 16.4457 216.289 16.9486 215.535 16.9486C214.911 16.9486 214.497 16.616 214.497 15.6833V13.4203H213.929V15.8617C213.929 16.8188 214.432 17.4515 215.357 17.4515C215.973 17.4515 216.517 17.1433 216.736 16.689L216.809 17.3542H217.295V13.4284H216.736ZM218.461 19.0656H219.021V16.5998C219.297 17.1676 219.824 17.4515 220.489 17.4515C221.649 17.4515 222.306 16.5593 222.306 15.375C222.306 14.1908 221.624 13.3229 220.489 13.3229C219.832 13.3229 219.28 13.6149 219.005 14.2233L218.948 13.4284H218.461V19.0656ZM219.029 15.3913C219.029 14.4828 219.532 13.8339 220.392 13.8339C221.243 13.8339 221.738 14.4828 221.738 15.3913C221.738 16.2916 221.243 16.9486 220.392 16.9486C219.532 16.9486 219.029 16.2916 219.029 15.3913Z" fill="white"/>
</svg>
